<svg id="Capa_1" enable-background="new 0 0 512 512" height="512" viewBox="0 0 512 512" width="512" xmlns="http://www.w3.org/2000/svg"><g><path d="m256 360.383c-16.542 0-30 13.458-30 30s13.458 30 30 30 30-13.458 30-30-13.458-30-30-30zm0 45c-8.271 0-15-6.729-15-15s6.729-15 15-15 15 6.729 15 15-6.729 15-15 15z"/><path d="m427.736 467v-160.822c0-18.245-13.763-32.549-35.918-37.331l-20.063-4.331v-169.358c.001-52.47-42.687-95.158-95.156-95.158h-41.202c-22.324 0-44.065 7.972-61.219 22.448l9.674 11.464c14.451-12.196 32.756-18.912 51.544-18.912h41.202c44.199 0 80.157 35.958 80.157 80.158v166.121l-63.259-13.654v-13.188l48.259-45.068v-77.445l-7.324-.172c-2.274-.053-4.617-.097-7.017-.141-30.856-.573-69.259-1.286-92.638-24.664l-6.911-6.912-4.887 8.465c-8.888 15.395-29.813 23.906-44.915 23.257l-7.826-.341v77.953l48.259 45.068v13.188l-63.258 13.654v-166.121c0-18.791 6.716-37.097 18.911-51.544l-11.463-9.675c-14.476 17.15-22.448 38.892-22.448 61.219v169.359l-20.063 4.331c-22.155 4.782-35.918 19.086-35.918 37.331v160.821h-54.255v45h376.999v-15h-361.999v-15h421.996v15h-44.997v15h59.997v-45zm-194.239-228.321h45v15c0 4.136-3.364 7.5-7.5 7.5h-30c-4.136 0-7.5-3.364-7.5-7.5zm-48.259-112.149c15.832-1.476 33.925-9.191 45.532-23.102 27.517 21.808 66.671 22.626 95.985 23.171v56.253l-43.716 40.827h-54.086l-43.716-40.827v-56.322zm-85.98 179.648c0-16.211 18.433-21.45 24.082-22.669l96.994-20.936c3.455 7.995 11.415 13.605 20.663 13.605h30c9.248 0 17.208-5.611 20.663-13.605l96.994 20.936c5.649 1.219 24.082 6.458 24.082 22.669v160.822h-17.673v-145.734c0-12.406-10.093-22.5-22.499-22.5h-233.128c-12.406 0-22.5 10.094-22.5 22.5v130.734h15v-130.734c0-4.136 3.364-7.5 7.5-7.5h233.129c4.135 0 7.499 3.364 7.499 7.5v145.734h-280.806z"/><path d="m213.673 141.805h15v15h-15z"/><path d="m282.831 141.805h15v15h-15z"/><path d="m237.247 182.493h37.5v15h-37.5z"/><path d="m335.012 66.413c-10.981-22.12-33.909-36.413-58.413-36.413v15c18.854 0 36.509 11.023 44.978 28.083z"/><path d="m246.599 30h15v15h-15z"/><path d="m350.064 328.766h15v15h-15z"/></g></svg>