<svg id="Capa_1" enable-background="new 0 0 512 512" height="512" viewBox="0 0 512 512" width="512" xmlns="http://www.w3.org/2000/svg"><g><g><path d="m490.771 361.219h-55.121v-29.341c0-12.126-3.135-23.768-8.782-33.972.799-46.763-2.609-81.456 5.635-135.476 2.055-13.465 3.583-27.179 4.544-40.762.292-4.132-2.82-7.718-6.952-8.011-4.152-.296-7.719 2.82-8.011 6.953-.932 13.181-2.416 26.49-4.409 39.557-8.118 53.191-5.176 88.761-5.807 119.069-22.355-19.735-68.656-25.75-98.639-29.64-2.64-.343-4.701-2.587-4.701-5.342v-35.668c16.331-12.866 24.977-30.511 27.144-51.524h3.166c11.565 0 20.975-9.409 20.975-20.975v-14.932c0-7.609-4.21-14.501-10.575-18.174l-.007-40.21c-.002-8.283-1.635-16.189-4.571-23.432h32.111c25.662 0 46.54 20.878 46.54 46.54 0 4.142 3.357 7.5 7.5 7.5s7.5-3.358 7.5-7.5c0-33.933-27.606-61.54-61.54-61.54h-40.785c-11.468-14.693-29.325-24.169-49.362-24.169h-61.263c-20.04 0-37.897 9.476-49.362 24.171h-40.769c-33.933 0-61.54 27.607-61.54 61.54 0 25.543 1.954 51.298 5.807 76.549 8.245 54.043 4.836 88.748 5.635 135.476-5.648 10.203-8.782 21.846-8.782 33.972v29.341h-55.121c-11.706 0-21.229 9.523-21.229 21.228v13.568c0 9.071 5.729 16.809 13.75 19.842v75.478c0 11.3 9.194 20.494 20.494 20.494h443.512c11.301 0 20.494-9.194 20.494-20.494v-75.478c8.021-3.034 13.75-10.772 13.75-19.842v-13.568c0-11.705-9.523-21.228-21.229-21.228zm-70.121-29.341v29.341h-33.574v-80.121c20.995 9.028 33.574 29.292 33.574 50.78zm-126.648 29.341 38.153-93.692c12.577 2.058 27.373 4.893 39.921 8.434v85.258zm-87.489-98.399 35.525 27.619c-30.337 15.204-29.081 14.918-30.505 15.132l-16.431-40.348c5.728-.795 7.964-.838 11.411-2.403zm88.26 56.732-13.434 32.99-5.62-22.374 7.591-16.19c8.883 4.419 9.24 4.809 11.463 5.574zm-45.8 2.351-6.886-14.686 13.913-7.022 13.913 7.022-6.886 14.686zm-20.283-7.924 7.591 16.189-5.62 22.374-13.434-32.99c2.237-.769 2.668-1.198 11.463-5.573zm21.365 22.924h11.889l6.107 24.316h-24.104zm66.842-71.68-16.431 40.348c-1.075-.162 1.007.771-30.504-15.132l35.525-27.619c3.442 1.563 5.467 1.578 11.41 2.403zm-21.84-13.294-39.057 30.365-39.057-30.365c.987-2.421 1.529-5.025 1.529-7.675v-26.069c11.539 5.835 24.063 8.869 37.445 9.018h.083s.056 0 .083 0c13.382-.149 25.906-3.184 37.445-9.018v26.069c0 2.651.542 5.254 1.529 7.675zm6.996-57.431c-12.992 11.188-28.424 17.489-46.053 17.705-17.529-.215-32.978-6.447-46.052-17.705-14.991-12.908-18.652-31.477-19.038-45.015 0-.041.004-.081.003-.122-.063-49.648-.04-31.536-.045-35.654 7.477-3.796 12.363-11.569 12.363-20.058v-28.641c0-3.83 3.116-6.946 6.947-6.946h3.111c11.956 0 19.348 7.481 43.424 7.481 23.629 0 31.72-7.481 43.424-7.481h1.685c3.83 0 6.946 3.116 6.946 6.946v28.641c0 8.501 4.899 16.285 12.395 20.074v35.298c0 .451-.01.45-.009.58-.403 13.499-4.097 31.978-19.101 44.897zm-134.866-73.342c0-2.781 1.969-5.232 4.683-5.828.444-.097.879-.147 1.292-.147h2.707l.02 26.881h-2.727c-3.294 0-5.975-2.68-5.975-5.975zm177.625 14.932c0 3.294-2.681 5.975-5.975 5.975h-2.675v-26.881h2.675c.413 0 .848.049 1.292.147 2.713.597 4.682 3.047 4.682 5.828v14.931zm-119.451-120.918h61.263c26.245 0 47.602 21.355 47.606 47.605l.007 37.407h-6.632c-2.333-1.315-3.837-3.817-3.837-6.533v-28.641c0-12.101-9.845-21.946-21.946-21.946h-1.685c-16.19 0-20.793 7.481-43.424 7.481-22.352 0-27.337-7.481-43.424-7.481h-3.111c-12.102 0-21.947 9.845-21.947 21.946v28.641c0 2.716-1.504 5.218-3.836 6.533-.188 0-6.99 0-6.634 0v-37.412c0-26.247 21.353-47.6 47.6-47.6zm-90.131 24.171h32.097c-2.934 7.242-4.566 15.146-4.566 23.429v40.214c-6.364 3.673-10.574 10.564-10.574 18.173v14.932c0 11.565 9.409 20.975 20.975 20.975h3.219c2.264 22.772 11.702 39.4 27.09 51.523v35.668c0 2.781-2.093 5.004-4.702 5.342-29.685 3.852-76.238 9.865-98.638 29.64-.633-30.375 2.348-65.632-5.807-119.069-3.739-24.506-5.635-49.5-5.635-74.287.001-25.663 20.879-46.54 46.541-46.54zm-43.88 292.537c0-21.534 12.626-41.8 33.645-50.81v20.948c0 4.142 3.358 7.5 7.5 7.5s7.5-3.358 7.5-7.5v-26.075c12.533-3.531 27.297-6.36 39.851-8.414 4.436 10.893 34.023 83.548 38.153 93.692h-78.004v-24.14c0-4.142-3.358-7.5-7.5-7.5s-7.5 3.358-7.5 7.5v24.14h-33.645zm-76.35 50.569c0-3.434 2.794-6.228 6.229-6.228h469.543c3.435 0 6.229 2.794 6.229 6.228v13.568c0 3.435-2.794 6.229-6.229 6.229h-469.543c-3.435 0-6.229-2.794-6.229-6.229zm462.756 114.383h-443.512c-3.029 0-5.494-2.465-5.494-5.494v-74.092h454.5v74.092c0 3.029-2.465 5.494-5.494 5.494z"/></g></g></svg>