<svg id="Capa_1" enable-background="new 0 0 509.702 509.702" height="512" viewBox="0 0 509.702 509.702" width="512" xmlns="http://www.w3.org/2000/svg"><g><path d="m282.099 177.55h15v15.001h-15z" transform="matrix(.707 -.707 .707 .707 -46.029 258.977)"/><path d="m503.481 42.486-1.121-16.813-14.796-14.796h-16.114l-13.039 13.039-23.728-23.728-16.466-.188-97.573 97.573 22.395 22.395-42.896 43.932 10.732 10.479 115.898-118.697 31.772 31.772-263.986 265.569-31.32-31.32 115.746-115.433-10.592-10.621-231.046 230.421-1.069 1.065-30.057 73.2 9.366 9.366 73.709-29.508 390.431-392.77-10.59-10.59zm-319.497 321.176-98.93 99.523-31.797-31.797 99.361-99.092zm-138.681 80.986 26.423 26.423-44.604 17.856zm432.36-418.771h3.688l6.417 6.417.293 4.399-29.532 29.532-10.606-10.606zm-51.017 8.465-73.127 74.893-11.662-11.662 82.503-82.503 4.04.047 19.405 19.405-10.489 10.489z"/><path d="m419.327 79.82h15v15h-15z" transform="matrix(.707 -.707 .707 .707 63.259 327.371)"/><path d="m398.114 101.032h15v15.001h-15z" transform="matrix(.707 -.707 .707 .707 42.057 318.601)"/><path d="m376.901 122.246h15v15h-15z" transform="matrix(.707 -.707 .707 .707 20.861 309.848)"/></g></svg>