<?xml version="1.0" encoding="iso-8859-1"?>
<!-- Generator: Adobe Illustrator 16.0.0, SVG Export Plug-In . SVG Version: 6.00 Build 0)  -->
<!DOCTYPE svg PUBLIC "-//W3C//DTD SVG 1.1//EN" "http://www.w3.org/Graphics/SVG/1.1/DTD/svg11.dtd">
<svg version="1.1" id="Capa_1" xmlns="http://www.w3.org/2000/svg" xmlns:xlink="http://www.w3.org/1999/xlink" x="0px" y="0px"
	 width="167.789px" height="167.789px" viewBox="0 0 167.789 167.789" style="enable-background:new 0 0 167.789 167.789;"
	 xml:space="preserve">
<g>
	<g>
		<path d="M163.617,27.225c-0.444-1.087-1.399-1.879-2.556-2.113c-1.146-0.228-2.341,0.13-3.169,0.957l-20.219,20.22l-16.238-0.862
			l-0.865-16.238l20.218-20.22c0.832-0.83,1.191-2.022,0.958-3.172c-0.232-1.151-1.026-2.108-2.114-2.549
			C134.352,1.093,128.773,0,123.055,0c-11.7,0-22.703,4.557-30.967,12.83C79.995,24.918,76.12,42.935,82.057,58.988L4.184,136.852
			c-0.628,0.623-1.006,1.444-1.057,2.303c-3.925,7.478-2.587,16.848,3.482,22.912c3.691,3.688,8.6,5.722,13.817,5.722
			c3.256,0,6.423-0.801,9.255-2.32c0.809-0.075,1.581-0.425,2.169-1.013l2.113-2.129c0.147-0.116,0.291-0.257,0.421-0.403
			l76.213-76.205c4.062,1.212,8.262,1.858,12.525,1.858c11.684,0,22.665-4.543,30.912-12.794
			C166.547,62.275,170.305,43.61,163.617,27.225z M29.339,157.057L29.339,157.057c-0.036,0.037-0.07,0.075-0.103,0.103l-1.205,1.204
			c-0.25,0.089-0.491,0.216-0.715,0.363c-4.815,3.172-11.646,2.498-15.752-1.612c-4.173-4.172-4.859-10.783-1.632-15.711
			c0.147-0.229,0.262-0.479,0.346-0.732l74.733-74.725c1.896,3.285,4.198,6.288,6.878,8.971c3.351,3.354,7.177,6.095,11.41,8.191
			L29.339,157.057z M149.08,69.824c-6.93,6.926-16.143,10.74-25.957,10.74c-4.206,0-8.354-0.708-12.31-2.103
			c-0.182-0.066-0.355-0.144-0.53-0.217l-0.681-0.288c-4.829-1.892-9.052-4.628-12.557-8.136c-3.23-3.232-5.813-7.038-7.686-11.331
			c-0.103-0.228-0.192-0.462-0.281-0.696l-0.194-0.508c-5.376-13.66-2.175-29.164,8.161-39.497
			c6.944-6.949,16.184-10.776,26.013-10.776c2.97,0,5.893,0.351,8.736,1.042L114.51,25.336c-0.702,0.705-1.075,1.672-1.023,2.664
			l1.115,20.945c0.096,1.787,1.526,3.217,3.316,3.311l20.943,1.114c0.989,0.07,1.965-0.318,2.663-1.023l17.292-17.287
			C161.852,47.441,158.286,60.622,149.08,69.824z"/>
		<path d="M21.173,138.749c-4.829,0-8.761,3.928-8.761,8.76c0,4.833,3.932,8.762,8.761,8.762s8.761-3.929,8.761-8.762
			C29.934,142.676,26.006,138.749,21.173,138.749z M21.173,149.261c-0.968,0-1.752-0.791-1.752-1.753
			c0-0.965,0.784-1.752,1.752-1.752c0.967,0,1.752,0.787,1.752,1.752C22.926,148.47,22.14,149.261,21.173,149.261z"/>
	</g>
</g>
<g>
</g>
<g>
</g>
<g>
</g>
<g>
</g>
<g>
</g>
<g>
</g>
<g>
</g>
<g>
</g>
<g>
</g>
<g>
</g>
<g>
</g>
<g>
</g>
<g>
</g>
<g>
</g>
<g>
</g>
</svg>
